<svg width="53" height="48" viewBox="0 0 53 48" fill="none" xmlns="http://www.w3.org/2000/svg">
<path d="M52.8896 23.6892C52.8896 10.7627 41.0499 0.283691 26.4448 0.283691C11.8397 0.283691 0 10.7627 0 23.6892C0 35.3716 9.67048 45.0545 22.3128 46.8103V30.4549H15.5983V23.6892H22.3128V18.5327C22.3128 12.6667 26.2609 9.42647 32.3014 9.42647C35.1947 9.42647 38.221 9.88361 38.221 9.88361V15.6436H34.8863C31.6013 15.6436 30.5768 17.4477 30.5768 19.2987V23.6892H37.9111L36.7387 30.4549H30.5768V46.8103C43.2191 45.0545 52.8896 35.3716 52.8896 23.6892Z" fill="#FCEED8"/>
<path d="M36.7387 30.4547L37.9112 23.689H30.5769V19.2985C30.5769 17.4475 31.6014 15.6434 34.8864 15.6434H38.2211V9.88341C38.2211 9.88341 35.1948 9.42627 32.3014 9.42627C26.2609 9.42627 22.3129 12.6665 22.3129 18.5325V23.689H15.5984V30.4547H22.3129V46.8101C25.0509 47.1893 27.8389 47.1893 30.5769 46.8101V30.4547H36.7387Z" fill="#1B0D13"/>
</svg>
