<svg width="53" height="48" viewBox="0 0 53 48" fill="none" xmlns="http://www.w3.org/2000/svg">
<path d="M41.1288 0.283691H11.9818C5.42544 0.283691 0.110474 4.98781 0.110474 10.7906V36.5878C0.110474 42.3906 5.42544 47.0947 11.9818 47.0947H41.1288C47.6851 47.0947 53.0001 42.3906 53.0001 36.5878V10.7906C53.0001 4.98781 47.6851 0.283691 41.1288 0.283691Z" fill="#FCEED8"/>
<path d="M18.4302 8.39062H34.9182C35.2846 8.55277 35.8342 8.55277 36.2006 8.71491C37.8084 8.94554 39.3117 9.56847 40.5414 10.5137C41.7712 11.4589 42.6788 12.689 43.1621 14.0657C43.4327 14.859 43.6167 15.6734 43.7117 16.4978V30.7665C43.4498 32.5749 42.6954 34.2999 41.5133 35.793C40.4993 36.8329 39.2279 37.6518 37.7981 38.1861C36.3684 38.7204 34.8186 38.9557 33.2694 38.8737H19.5294C17.0774 38.9791 14.6665 38.287 12.7511 36.928C11.5863 36.0373 10.6671 34.9226 10.0638 33.6692C9.46051 32.4158 9.18908 31.0569 9.27028 29.6964V18.3463C9.24002 17.5322 9.30139 16.7174 9.45348 15.9141C9.63848 14.2518 10.4107 12.6834 11.6605 11.4317C12.9102 10.1801 14.5739 9.30885 16.4151 8.94192L18.4302 8.39062ZM12.7511 23.7943V30.1179C12.673 30.9232 12.7947 31.7339 13.1077 32.4931C13.4207 33.2524 13.9175 33.9419 14.5632 34.5134C15.2089 35.0849 15.988 35.5246 16.8458 35.8016C17.7037 36.0787 18.6196 36.1864 19.5294 36.1173C24.2926 36.2794 29.0558 36.2794 33.819 36.1173C38.0326 36.1173 40.4141 33.8473 40.5973 30.1179C40.7805 25.9022 40.7805 21.6865 40.5973 17.4707C40.6448 16.6718 40.502 15.873 40.1781 15.1261C39.8543 14.3792 39.3566 13.7009 38.7175 13.1352C38.0783 12.5695 37.312 12.129 36.4681 11.8424C35.6242 11.5558 34.7216 11.4294 33.819 11.4714C29.0558 11.3092 24.2926 11.3092 19.5294 11.4714C18.6196 11.4022 17.7037 11.51 16.8458 11.787C15.988 12.0641 15.2089 12.5037 14.5632 13.0752C13.9175 13.6467 13.4207 14.3363 13.1077 15.0955C12.7947 15.8548 12.673 16.6654 12.7511 17.4707V23.7943Z" fill="#1B0D13"/>
<path d="M17.7708 23.8591C17.7756 21.7533 18.7229 19.7349 20.4053 18.2459C22.0878 16.7568 24.3682 15.9183 26.7475 15.9141C29.1136 15.9555 31.3698 16.8059 33.0432 18.287C34.7166 19.7681 35.6774 21.765 35.7243 23.8591C35.7194 25.965 34.7721 27.9833 33.0897 29.4724C31.4073 30.9615 29.1268 31.7999 26.7475 31.8042C24.3814 31.7627 22.1253 30.9123 20.4518 29.4312C18.7784 27.9501 17.8176 25.9533 17.7708 23.8591ZM26.7475 18.8327C25.6348 18.8166 24.542 19.0951 23.6093 19.6323C22.6765 20.1694 21.9462 20.9409 21.512 21.8478C21.0777 22.7547 20.9594 23.7557 21.1721 24.7225C21.3847 25.6893 21.9187 26.5779 22.7056 27.2743C23.4925 27.9708 24.4965 28.4434 25.5889 28.6317C26.6812 28.8199 27.8122 28.7151 28.8368 28.3308C29.8615 27.9465 30.7331 27.3001 31.3401 26.4746C31.947 25.649 32.2616 24.6818 32.2435 23.697C32.2435 22.4069 31.6644 21.1696 30.6338 20.2574C29.6031 19.3451 28.2051 18.8327 26.7475 18.8327Z" fill="#1B0D13"/>
<path d="M33.7092 15.5895C33.699 15.3315 33.7488 15.0744 33.8557 14.8343C33.9625 14.5941 34.1241 14.376 34.3303 14.1935C34.5365 14.011 34.783 13.868 35.0543 13.7734C35.3257 13.6788 35.6161 13.6347 35.9076 13.6437C36.4779 13.6779 37.015 13.8938 37.4192 14.2516C37.8234 14.6094 38.0674 15.0847 38.106 15.5895C38.106 16.1055 37.8744 16.6004 37.4621 16.9653C37.0498 17.3302 36.4906 17.5352 35.9076 17.5352C35.3245 17.5352 34.7654 17.3302 34.3531 16.9653C33.9408 16.6004 33.7092 16.1055 33.7092 15.5895Z" fill="#1B0D13"/>
</svg>
