<svg width="132" height="28" viewBox="0 0 132 28" fill="none" xmlns="http://www.w3.org/2000/svg">
<path d="M1.365 25.3927C1.02243 25.4083 0.75772 25.346 0.570863 25.2059C0.368435 25.0657 0.298364 24.801 0.36065 24.4117C0.36065 24.365 0.376221 24.2949 0.407364 24.2015C0.438506 24.1081 0.477435 24.0458 0.524149 24.0146C0.508578 24.4039 0.555292 24.6764 0.664292 24.8321C0.773291 24.9879 0.952362 25.0657 1.2015 25.0657C1.80879 25.0657 2.43164 24.8711 3.07007 24.4818C3.72407 24.0925 4.37028 23.5709 5.00871 22.9169C4.853 22.8702 4.65057 22.7767 4.40142 22.6366C4.16785 22.512 3.98878 22.4108 3.86421 22.3329C3.24136 21.8814 2.92993 21.3597 2.92993 20.768C2.92993 20.3164 3.13236 19.8259 3.53721 19.2965C3.94207 18.7671 4.60385 18.2299 5.52256 17.6849C6.11428 17.3267 6.79942 17.0075 7.57799 16.7272C8.35656 16.447 9.08063 16.2212 9.7502 16.0499C9.98377 15.5983 10.2096 15.1545 10.4276 14.7185C10.6456 14.2825 10.8558 13.8465 11.0582 13.4105C11.1361 13.2392 11.2762 12.9122 11.4786 12.4295C11.681 11.9468 11.9068 11.3785 12.156 10.7245C12.4051 10.0705 12.6387 9.37754 12.8567 8.64569C13.0903 7.89826 13.2849 7.17419 13.4406 6.47348C13.5963 5.77277 13.6742 5.14991 13.6742 4.60491C13.6742 4.07549 13.5808 3.66284 13.3939 3.36699C13.2226 3.07113 12.9112 2.9232 12.4596 2.9232H12.4363C12.3117 2.9232 12.2494 2.88427 12.2494 2.80642C12.2494 2.72856 12.3273 2.67406 12.483 2.64292C13.2304 2.56506 13.752 2.74413 14.0479 3.18013C14.3438 3.61613 14.4917 4.19227 14.4917 4.90856C14.4917 5.03313 14.4839 5.16548 14.4683 5.30563C14.4683 5.44577 14.4605 5.5937 14.445 5.74941C14.5384 5.82727 14.6007 5.95962 14.6318 6.14648C14.7253 6.64477 14.8187 7.29876 14.9121 8.10848C15.0211 8.91819 15.1457 9.80576 15.2858 10.7712C15.426 11.7366 15.5895 12.7176 15.7763 13.7142C15.9788 14.6952 16.2123 15.6217 16.477 16.4937C16.7573 17.3501 17.0843 18.0742 17.458 18.6659C17.5359 18.7904 17.6449 18.9539 17.785 19.1564C17.9252 19.3432 18.0965 19.5145 18.2989 19.6702C18.5013 19.8259 18.7271 19.9038 18.9762 19.9038C19.241 19.9038 19.5135 19.7948 19.7937 19.5768C20.0429 19.3744 20.2765 19.0941 20.4945 18.7359C20.7125 18.3778 20.9149 17.9963 21.1017 17.5915C21.1952 17.4202 21.2808 17.3345 21.3587 17.3345C21.4365 17.3345 21.491 17.3812 21.5222 17.4747C21.5689 17.5525 21.5845 17.6304 21.5689 17.7082C21.5066 17.9107 21.3742 18.152 21.1718 18.4323C20.985 18.697 20.7903 18.9462 20.5879 19.1797C20.3855 19.3977 20.222 19.5534 20.0974 19.6469C19.8171 19.8649 19.5446 20.0206 19.2799 20.114C19.0307 20.223 18.7972 20.2775 18.5792 20.2775C18.0653 20.2775 17.6137 20.0829 17.2245 19.6936C16.8508 19.2887 16.5238 18.8683 16.2435 18.4323C15.8542 17.8095 15.5428 17.0231 15.3092 16.0732C15.0912 15.1234 14.9199 14.0957 14.7953 12.9901C14.6708 11.8845 14.5695 10.7945 14.4917 9.72011C14.4294 8.64569 14.3593 7.66469 14.2815 6.77712C14.0946 7.64912 13.8377 8.54447 13.5107 9.46319C13.1837 10.3819 12.8489 11.2305 12.5063 12.0091C12.1793 12.7721 11.9068 13.3638 11.6888 13.7842C11.3463 14.485 10.9726 15.1857 10.5677 15.8864C11.284 15.7151 12.0314 15.5594 12.81 15.4192C13.5885 15.2791 14.2737 15.1467 14.8654 15.0222H14.9355C14.9978 15.0222 15.0289 15.0455 15.0289 15.0922C15.0289 15.139 14.99 15.2012 14.9121 15.2791C14.8343 15.357 14.733 15.4115 14.6085 15.4426C13.9389 15.5672 13.2148 15.7151 12.4363 15.8864C11.6577 16.0421 10.9258 16.2134 10.2407 16.4002C9.52441 17.6304 8.80034 18.7982 8.06849 19.9038C7.33663 21.0094 6.53471 21.9904 5.66271 22.8468C6.25442 23.0337 7.00963 23.1271 7.92834 23.1271H7.97506C8.09963 23.1271 8.16192 23.1582 8.16192 23.2205C8.16192 23.3139 8.06849 23.3607 7.88163 23.3607C7.44563 23.3762 7.01742 23.3529 6.59699 23.2906C6.17656 23.2439 5.78728 23.166 5.42914 23.057C4.744 23.7266 4.05107 24.2638 3.35036 24.6686C2.66522 25.0891 2.00343 25.3304 1.365 25.3927ZM5.24228 22.6833C5.98971 21.9047 6.71378 20.9938 7.41449 19.9505C8.13077 18.9072 8.80034 17.8172 9.4232 16.6805C9.22077 16.7428 9.01056 16.8129 8.79256 16.8907C8.57456 16.9686 8.36434 17.062 8.16192 17.171C7.8972 17.2956 7.53906 17.4747 7.08749 17.7082C6.63592 17.9418 6.18435 18.191 5.73278 18.4557C5.29678 18.7048 4.96199 18.9306 4.72842 19.133C4.417 19.4133 4.19121 19.6858 4.05107 19.9505C3.91093 20.2152 3.84086 20.4722 3.84086 20.7213C3.84086 20.9393 3.87978 21.1495 3.95764 21.3519C4.05107 21.5544 4.16007 21.749 4.28464 21.9359C4.3625 22.0293 4.50264 22.1539 4.70507 22.3096C4.92307 22.4809 5.10214 22.6054 5.24228 22.6833ZM37.1692 24.5051C36.7332 24.5051 36.3673 24.3183 36.0714 23.9446C35.7756 23.5864 35.5576 23.1427 35.4174 22.6132C35.2773 22.0838 35.2072 21.5777 35.2072 21.095C35.2072 20.1607 35.3396 19.1252 35.6043 17.9885C35.869 16.8518 36.196 15.6917 36.5853 14.5083C36.9902 13.3249 37.4028 12.1882 37.8232 11.0982C38.2592 9.99261 38.6485 8.99604 38.9911 8.10848C39.3336 7.22091 39.575 6.51241 39.7151 5.98298C39.7463 5.84284 39.7696 5.71827 39.7852 5.60927C39.8008 5.4847 39.8086 5.38348 39.8086 5.30563C39.8086 5.02534 39.7229 4.8852 39.5516 4.8852C39.3025 4.8852 38.9288 5.14213 38.4305 5.65598C37.9322 6.15427 37.3717 6.83941 36.7488 7.71141C36.1415 8.56783 35.5342 9.54104 34.9269 10.631C34.3197 11.721 33.7747 12.85 33.2919 14.0178C32.8248 15.1701 32.4978 16.299 32.311 17.4046C32.2487 17.8095 32.1397 18.1131 31.984 18.3155C31.8438 18.5179 31.7037 18.6192 31.5635 18.6192C31.439 18.6192 31.33 18.5413 31.2365 18.3856C31.1431 18.2299 31.0964 18.0041 31.0964 17.7082C31.0808 16.4625 31.0419 15.2168 30.9796 13.9711C30.9173 12.7098 30.7772 11.503 30.5592 10.3508C30.2322 8.57562 29.8585 7.31433 29.438 6.56691C29.0332 5.81948 28.6127 5.44577 28.1767 5.44577C27.7719 5.44577 27.3748 5.69491 26.9855 6.19319C26.6118 6.67591 26.2537 7.32212 25.9111 8.13183C25.5685 8.92597 25.2649 9.79797 25.0002 10.7478C24.7355 11.6977 24.5253 12.6397 24.3695 13.574C24.2294 14.5083 24.1593 15.3414 24.1593 16.0732C24.1593 16.2445 24.1593 16.4158 24.1593 16.5871C24.1749 16.7428 24.1905 16.8907 24.206 17.0309C24.2216 17.1087 24.2294 17.1944 24.2294 17.2878C24.2294 17.3657 24.2294 17.4435 24.2294 17.5214C24.2294 17.8795 24.1827 18.1987 24.0893 18.479C23.9958 18.7593 23.8868 18.8994 23.7623 18.8994C23.6377 18.8994 23.5209 18.7593 23.4119 18.479C23.2873 18.1987 23.1861 17.8484 23.1083 17.428C23.0304 16.992 22.9681 16.626 22.9214 16.3302C22.8903 16.1122 22.8202 15.7852 22.7112 15.3492C22.6178 14.9132 22.501 14.4382 22.3608 13.9244C22.2207 13.395 22.0572 12.8811 21.8703 12.3828C21.699 11.869 21.5122 11.433 21.3098 11.0748C21.1073 10.7011 20.8971 10.4598 20.6791 10.3508C20.648 10.3196 20.6324 10.2885 20.6324 10.2573C20.6324 10.1795 20.7103 10.1328 20.866 10.1172C21.0373 10.1016 21.154 10.1094 21.2163 10.1405C21.5433 10.234 21.8314 10.4675 22.0805 10.8413C22.3453 11.1994 22.571 11.6276 22.7579 12.1259C22.9603 12.6086 23.1316 13.0913 23.2718 13.574C23.4119 14.0412 23.5287 14.4305 23.6221 14.7419C23.7934 13.6675 23.9958 12.6086 24.2294 11.5653C24.4785 10.5065 24.8055 9.47097 25.2104 8.45883C25.7865 7.05741 26.3549 6.06084 26.9155 5.46913C27.476 4.86184 28.0055 4.5582 28.5037 4.5582C29.0332 4.5582 29.5081 4.8307 29.9285 5.3757C30.3645 5.90512 30.7305 6.61362 31.0263 7.50119C31.3377 8.37319 31.548 9.32304 31.657 10.3508C31.7192 10.8802 31.7582 11.4563 31.7737 12.0792C31.7893 12.6865 31.7971 13.286 31.7971 13.8777V15.6995C31.7971 15.9642 31.7971 16.2056 31.7971 16.4236C31.7971 16.6416 31.8049 16.8207 31.8205 16.9608C31.9295 16.5871 32.1085 16.0655 32.3577 15.3959C32.6068 14.7107 32.9104 13.9477 33.2686 13.1069C33.6267 12.2505 34.0316 11.3707 34.4832 10.4675C34.9347 9.5644 35.4174 8.70019 35.9313 7.8749C36.4607 7.03405 37.0057 6.30219 37.5663 5.67934C38.1424 5.04091 38.7186 4.57377 39.2947 4.27791C39.6373 4.10663 39.9565 4.02099 40.2524 4.02099C40.5949 4.02099 40.883 4.1222 41.1166 4.32463C41.3501 4.51149 41.4669 4.79177 41.4669 5.16548C41.4669 5.72605 41.3501 6.28662 41.1166 6.84719C40.883 7.39219 40.6027 7.9294 40.2757 8.45883C39.9487 8.98826 39.6451 9.50212 39.3648 10.0004C38.8665 10.9035 38.3682 11.9468 37.8699 13.1302C37.3717 14.3137 36.9512 15.536 36.6087 16.7973C36.2817 18.0586 36.1182 19.2732 36.1182 20.441C36.1182 20.8147 36.1337 21.1807 36.1649 21.5388C36.2116 21.8969 36.2817 22.2395 36.3751 22.5665C36.5152 23.0648 36.6865 23.4074 36.8889 23.5942C37.1069 23.7967 37.3249 23.8979 37.5429 23.8979C37.7765 23.8979 37.9945 23.8278 38.1969 23.6877C38.3994 23.5631 38.5629 23.4229 38.6874 23.2672C38.812 23.1271 38.8665 23.0414 38.8509 23.0103C38.9911 22.9636 39.0456 23.0025 39.0144 23.1271C38.9833 23.2672 38.921 23.4074 38.8276 23.5475C38.7341 23.7032 38.6719 23.7967 38.6407 23.8278C38.0957 24.2794 37.6052 24.5051 37.1692 24.5051ZM37.7692 25.3927C37.4266 25.4083 37.1619 25.346 36.9751 25.2059C36.7726 25.0657 36.7026 24.801 36.7649 24.4117C36.7649 24.365 36.7804 24.2949 36.8116 24.2015C36.8427 24.1081 36.8816 24.0458 36.9284 24.0146C36.9128 24.4039 36.9595 24.6764 37.0685 24.8321C37.1775 24.9879 37.3566 25.0657 37.6057 25.0657C38.213 25.0657 38.8358 24.8711 39.4743 24.4818C40.1283 24.0925 40.7745 23.5709 41.4129 22.9169C41.2572 22.8702 41.0548 22.7767 40.8056 22.6366C40.5721 22.512 40.393 22.4108 40.2684 22.3329C39.6456 21.8814 39.3341 21.3597 39.3341 20.768C39.3341 20.3164 39.5366 19.8259 39.9414 19.2965C40.3463 18.7671 41.0081 18.2299 41.9268 17.6849C42.5185 17.3267 43.2036 17.0075 43.9822 16.7272C44.7608 16.447 45.4848 16.2212 46.1544 16.0499C46.388 15.5983 46.6138 15.1545 46.8318 14.7185C47.0498 14.2825 47.26 13.8465 47.4624 13.4105C47.5403 13.2392 47.6804 12.9122 47.8828 12.4295C48.0853 11.9468 48.311 11.3785 48.5602 10.7245C48.8093 10.0705 49.0429 9.37754 49.2609 8.64569C49.4945 7.89826 49.6891 7.17419 49.8448 6.47348C50.0005 5.77277 50.0784 5.14991 50.0784 4.60491C50.0784 4.07549 49.985 3.66284 49.7981 3.36699C49.6268 3.07113 49.3154 2.9232 48.8638 2.9232H48.8405C48.7159 2.9232 48.6536 2.88427 48.6536 2.80642C48.6536 2.72856 48.7315 2.67406 48.8872 2.64292C49.6346 2.56506 50.1562 2.74413 50.4521 3.18013C50.748 3.61613 50.8959 4.19227 50.8959 4.90856C50.8959 5.03313 50.8881 5.16548 50.8725 5.30563C50.8725 5.44577 50.8647 5.5937 50.8492 5.74941C50.9426 5.82727 51.0049 5.95962 51.036 6.14648C51.1295 6.64477 51.2229 7.29876 51.3163 8.10848C51.4253 8.91819 51.5499 9.80576 51.69 10.7712C51.8302 11.7366 51.9937 12.7176 52.1805 13.7142C52.383 14.6952 52.6165 15.6217 52.8812 16.4937C53.1615 17.3501 53.4885 18.0742 53.8622 18.6659C53.9401 18.7904 54.0491 18.9539 54.1892 19.1564C54.3294 19.3432 54.5007 19.5145 54.7031 19.6702C54.9055 19.8259 55.1313 19.9038 55.3805 19.9038C55.6452 19.9038 55.9177 19.7948 56.1979 19.5768C56.4471 19.3744 56.6807 19.0941 56.8987 18.7359C57.1167 18.3778 57.3191 17.9963 57.5059 17.5915C57.5994 17.4202 57.685 17.3345 57.7629 17.3345C57.8407 17.3345 57.8952 17.3812 57.9264 17.4747C57.9731 17.5525 57.9887 17.6304 57.9731 17.7082C57.9108 17.9107 57.7784 18.152 57.576 18.4323C57.3892 18.697 57.1945 18.9462 56.9921 19.1797C56.7897 19.3977 56.6262 19.5534 56.5016 19.6469C56.2213 19.8649 55.9488 20.0206 55.6841 20.114C55.435 20.223 55.2014 20.2775 54.9834 20.2775C54.4695 20.2775 54.018 20.0829 53.6287 19.6936C53.255 19.2887 52.928 18.8683 52.6477 18.4323C52.2584 17.8095 51.947 17.0231 51.7134 16.0732C51.4954 15.1234 51.3241 14.0957 51.1995 12.9901C51.075 11.8845 50.9737 10.7945 50.8959 9.72011C50.8336 8.64569 50.7635 7.66469 50.6857 6.77712C50.4988 7.64912 50.2419 8.54447 49.9149 9.46319C49.5879 10.3819 49.2531 11.2305 48.9105 12.0091C48.5835 12.7721 48.311 13.3638 48.093 13.7842C47.7505 14.485 47.3768 15.1857 46.9719 15.8864C47.6882 15.7151 48.4356 15.5594 49.2142 15.4192C49.9927 15.2791 50.6779 15.1467 51.2696 15.0222H51.3397C51.402 15.0222 51.4331 15.0455 51.4331 15.0922C51.4331 15.139 51.3942 15.2012 51.3163 15.2791C51.2385 15.357 51.1372 15.4115 51.0127 15.4426C50.3431 15.5672 49.619 15.7151 48.8405 15.8864C48.0619 16.0421 47.33 16.2134 46.6449 16.4002C45.9286 17.6304 45.2045 18.7982 44.4727 19.9038C43.7408 21.0094 42.9389 21.9904 42.0669 22.8468C42.6586 23.0337 43.4138 23.1271 44.3325 23.1271H44.3793C44.5038 23.1271 44.5661 23.1582 44.5661 23.2205C44.5661 23.3139 44.4727 23.3607 44.2858 23.3607C43.8498 23.3762 43.4216 23.3529 43.0012 23.2906C42.5808 23.2439 42.1915 23.166 41.8333 23.057C41.1482 23.7266 40.4553 24.2638 39.7546 24.6686C39.0694 25.0891 38.4076 25.3304 37.7692 25.3927ZM41.6465 22.6833C42.3939 21.9047 43.118 20.9938 43.8187 19.9505C44.535 18.9072 45.2045 17.8172 45.8274 16.6805C45.625 16.7428 45.4148 16.8129 45.1968 16.8907C44.9788 16.9686 44.7685 17.062 44.5661 17.171C44.3014 17.2956 43.9433 17.4747 43.4917 17.7082C43.0401 17.9418 42.5886 18.191 42.137 18.4557C41.701 18.7048 41.3662 18.9306 41.1326 19.133C40.8212 19.4133 40.5954 19.6858 40.4553 19.9505C40.3151 20.2152 40.2451 20.4722 40.2451 20.7213C40.2451 20.9393 40.284 21.1495 40.3618 21.3519C40.4553 21.5544 40.5643 21.749 40.6888 21.9359C40.7667 22.0293 40.9068 22.1539 41.1093 22.3096C41.3273 22.4809 41.5063 22.6054 41.6465 22.6833ZM60.4935 25.7197C59.8862 25.7197 59.3022 25.4939 58.7417 25.0424C58.1811 24.6064 57.6984 23.8823 57.2935 22.8702C57.1534 22.512 57.0522 22.1383 56.9899 21.749C56.9276 21.3597 56.8965 20.9704 56.8965 20.5812C56.8965 19.9427 56.9665 19.3043 57.1067 18.6659C57.2468 18.0275 57.4259 17.428 57.6439 16.8674C57.8152 16.4625 58.0565 16.011 58.368 15.5127C58.6794 14.9988 58.9752 14.5784 59.2555 14.2514C59.349 14.158 59.4657 14.0567 59.6059 13.9477C59.746 13.8232 59.8395 13.7609 59.8862 13.7609C59.9017 13.7609 59.9095 13.7687 59.9095 13.7842C59.9095 13.831 59.7772 14.0178 59.5125 14.3448C58.874 15.1234 58.3991 16.011 58.0877 17.0075C57.7918 17.9885 57.6439 18.9617 57.6439 19.9272C57.6439 20.5033 57.6906 21.0561 57.784 21.5855C57.893 22.1149 58.0332 22.6054 58.2045 23.057C58.5315 23.8823 58.8818 24.474 59.2555 24.8321C59.6448 25.1903 60.0497 25.3694 60.4701 25.3694C60.9995 25.3694 61.5367 25.1436 62.0817 24.692C62.6267 24.2404 63.1562 23.6409 63.67 22.8935C64.1994 22.1461 64.6899 21.3364 65.1415 20.4644C65.5931 19.5924 65.9824 18.7282 66.3094 17.8717C66.6519 16.9997 66.9011 16.2212 67.0568 15.536L67.4072 14.0879C67.3293 14.0723 67.2904 14.0412 67.2904 13.9945C67.2904 13.9166 67.3527 13.8387 67.4772 13.7609C67.6641 12.92 67.8042 12.0948 67.8977 11.285C68.0067 10.4753 68.0612 9.7279 68.0612 9.04276C68.0612 8.29533 67.9911 7.64133 67.8509 7.08076C67.7264 6.50462 67.5162 6.06862 67.2203 5.77277C67.0957 5.6482 66.9556 5.58591 66.7999 5.58591C66.6909 5.58591 66.5741 5.61705 66.4495 5.67934C66.3405 5.74163 66.2315 5.81948 66.1225 5.91291C66.0135 6.02191 65.9979 5.99855 66.0758 5.84284C66.1692 5.67155 66.3172 5.4847 66.5196 5.28227C66.7376 5.07984 66.9712 4.97863 67.2203 4.97863C67.3604 4.97863 67.5006 5.02534 67.6407 5.11877C68.139 5.46134 68.4894 5.98298 68.6918 6.68369C68.9098 7.38441 69.0188 8.19412 69.0188 9.11283C69.0188 9.72011 68.9799 10.3585 68.902 11.0281C68.8242 11.6977 68.7152 12.3828 68.575 13.0835C68.6062 13.1147 68.6295 13.1536 68.6451 13.2003C68.6762 13.247 68.7074 13.2937 68.7385 13.3405C70.6226 12.7332 72.1331 12.087 73.2698 11.4018C74.4221 10.7167 75.2551 10.0238 75.769 9.32304C76.2984 8.62233 76.5631 7.95276 76.5631 7.31434C76.5631 6.64477 76.314 6.04527 75.8157 5.51584C75.3174 4.98641 74.6323 4.56598 73.7603 4.25456C72.8883 3.94313 71.8839 3.78742 70.7472 3.78742C69.6884 3.78742 68.5906 3.93534 67.4539 4.2312C66.4262 4.51148 65.4452 4.92413 64.5109 5.46913C63.5922 5.99855 62.7669 6.59027 62.035 7.24426C61.3187 7.89826 60.7348 8.54447 60.2832 9.1829C59.8472 9.82133 59.5981 10.3819 59.5358 10.8646C59.5047 11.2072 59.4424 11.4563 59.349 11.612C59.2711 11.7678 59.1932 11.8456 59.1154 11.8456C58.8818 11.8456 58.765 11.5653 58.765 11.0048C58.765 10.9269 58.765 10.849 58.765 10.7712C58.7806 10.6933 58.7962 10.6155 58.8117 10.5376C58.9052 9.8369 59.2166 9.13619 59.746 8.43548C60.291 7.73476 60.9762 7.08076 61.8015 6.47348C62.6423 5.85062 63.561 5.29784 64.5576 4.81513C65.5542 4.33241 66.5507 3.9587 67.5473 3.69399C68.1857 3.5227 68.8086 3.39813 69.4159 3.32027C70.0387 3.24242 70.6382 3.20349 71.2144 3.20349C72.4756 3.20349 73.589 3.37477 74.5544 3.71734C75.5198 4.05991 76.2751 4.52706 76.8201 5.11877C77.3651 5.69491 77.6376 6.35669 77.6376 7.10412C77.6376 7.72698 77.404 8.38876 76.9368 9.08947C76.4697 9.79019 75.7223 10.4909 74.6946 11.1916C73.6669 11.8923 72.3121 12.5697 70.6304 13.2237C70.2879 13.3482 69.9764 13.4572 69.6961 13.5507C69.4314 13.6441 69.1901 13.7297 68.9721 13.8076C69.2835 14.3682 69.6884 15.0222 70.1866 15.7696C70.6849 16.517 71.2144 17.2722 71.7749 18.0352C72.3511 18.7982 72.9194 19.4912 73.48 20.114C74.0406 20.7369 74.5466 21.2118 74.9982 21.5388C75.2785 21.7412 75.6055 21.9437 75.9792 22.1461C76.3685 22.3641 76.7422 22.4731 77.1003 22.4731C77.4585 22.4731 77.731 22.3719 77.9178 22.1694C78.1047 21.9826 78.2371 21.7412 78.3149 21.4454C78.3928 21.1495 78.4317 20.8537 78.4317 20.5578C78.4317 19.5457 78.1358 18.6114 77.5441 17.755C77.4974 17.6771 77.4741 17.6304 77.4741 17.6148C77.4741 17.5681 77.4974 17.5447 77.5441 17.5447C77.6376 17.5447 77.731 17.607 77.8244 17.7316C78.1358 18.1053 78.385 18.5413 78.5718 19.0396C78.7587 19.5379 78.8521 20.0362 78.8521 20.5344C78.8521 21.2974 78.6263 21.9359 78.1748 22.4497C77.7388 22.9792 77.1393 23.2439 76.3763 23.2439C75.5821 23.2439 74.8425 23.0259 74.1574 22.5899C73.4878 22.1539 72.8649 21.5777 72.2888 20.8614C71.7126 20.1452 71.191 19.3744 70.7239 18.5491C70.2567 17.7082 69.8441 16.883 69.4859 16.0732C69.1278 15.2635 68.8164 14.5472 68.5517 13.9244L68.3882 13.9711C68.139 15.0455 67.8509 16.0888 67.5239 17.101C67.2125 18.1131 66.8855 19.0318 66.5429 19.8571C66.1225 20.8848 65.5775 21.8424 64.9079 22.73C64.2539 23.6332 63.5377 24.3572 62.7591 24.9022C61.9961 25.4472 61.2409 25.7197 60.4935 25.7197Z" fill="#E7DCC8"/>
<path d="M109.526 16.6773C115.424 16.6773 120.204 12.9538 120.204 8.36062C120.204 3.76746 115.424 0.0439453 109.526 0.0439453C103.629 0.0439453 98.8483 3.76746 98.8483 8.36062C98.8483 12.9538 103.629 16.6773 109.526 16.6773Z" fill="#1B0D13"/>
<path d="M111.076 5.28174C112.012 5.75856 112.641 6.65639 112.641 7.68939V13.2124H106.412V7.68939C106.412 6.66921 107.025 5.78108 107.942 5.29976" fill="#FFE695"/>
<path d="M109.526 5.28516V13.212H112.641V7.689C112.641 6.656 112.006 5.76198 111.07 5.28516H109.526Z" fill="#EDD58B"/>
<path d="M108.859 3.18359H110.194C110.81 3.18359 111.306 3.56997 111.306 4.04991V8.55474C111.306 9.03468 110.81 9.42106 110.194 9.42106H108.859C108.713 9.42129 108.568 9.39903 108.433 9.35558C108.298 9.31212 108.175 9.24834 108.072 9.16785C107.968 9.08736 107.886 8.99176 107.831 8.88655C107.775 8.78134 107.746 8.66857 107.747 8.55474V4.04991C107.747 3.56997 108.243 3.18359 108.859 3.18359Z" fill="#FF5855"/>
<path d="M108.41 4.02881H108.859V7.84063H108.41V4.02881Z" fill="#FF7A6C"/>
<path d="M109.973 4.39551L109.952 4.64328L110.203 4.79713L109.894 4.85847L109.783 5.09169L109.613 4.88135L109.294 4.87164L109.498 4.6807L109.412 4.44159L109.708 4.53343L109.973 4.39551ZM110.418 6.8212L110.397 7.06897L110.648 7.22282L110.339 7.28416L110.228 7.51736L110.058 7.30704L109.739 7.29731L109.943 7.10641L109.857 6.86728L110.153 6.95912L110.418 6.8212ZM110.499 5.39421L110.709 5.58098L111.026 5.55188L110.863 5.76533L110.996 5.99092L110.685 5.93618L110.451 6.10494L110.421 5.8575L110.143 5.73623L110.436 5.63782L110.499 5.39421Z" fill="#FFE695"/>
<path d="M108.859 3.18359C108.243 3.18359 107.747 3.53774 107.747 4.01768V4.02808H111.306V4.01768C111.306 3.53774 110.81 3.18359 110.194 3.18359H108.859Z" fill="#FF7A6C"/>
<path d="M109.373 7.51504C109.29 7.51989 109.207 7.53617 109.123 7.54761C108.594 7.61873 108.11 7.82447 107.747 8.13258V8.55462C107.747 9.03456 108.243 9.42093 108.859 9.42093H110.194C110.81 9.42093 111.306 9.03456 111.306 8.55462V8.08889C110.811 7.70216 110.11 7.4738 109.373 7.51504Z" fill="#D94C4A"/>
<path d="M108.859 7.60205C108.703 7.6374 108.553 7.67551 108.414 7.732V9.34543C108.552 9.3929 108.699 9.4217 108.859 9.4217V7.60243V7.60205Z" fill="#FF5855"/>
<path d="M109.195 3.18457C108.61 3.18457 108.413 3.67942 108.411 3.98644V4.02699H108.859C108.859 4.01139 108.859 3.99823 108.86 3.9809C108.87 3.7314 108.9 3.18457 109.577 3.18457H109.195Z" fill="#FF968A"/>
<path d="M92.2884 3.19678L93.4639 6.65567L97.2677 6.65567L94.1903 8.79339L95.3658 12.2523L92.2884 10.1146L89.211 12.2523L90.3865 8.79339L87.3091 6.65567L91.113 6.65567L92.2884 3.19678Z" fill="white"/>
<path d="M98.0827 13.2085L99.2582 16.6674L103.062 16.6674L99.9847 18.8051L101.16 22.264L98.0827 20.1263L95.0053 22.264L96.1808 18.8051L93.1034 16.6674L96.9073 16.6674L98.0827 13.2085Z" fill="white"/>
<path d="M109.547 17.6626L110.723 21.1215L114.526 21.1215L111.449 23.2592L112.624 26.7181L109.547 24.5804L106.47 26.7181L107.645 23.2592L104.568 21.1215L108.372 21.1215L109.547 17.6626Z" fill="white"/>
<path d="M120.184 13.2085L121.359 16.6674L125.163 16.6674L122.086 18.8051L123.261 22.264L120.184 20.1263L117.106 22.264L118.282 18.8051L115.204 16.6674L119.008 16.6674L120.184 13.2085Z" fill="white"/>
<path d="M126.764 3.19678L127.94 6.65567L131.744 6.65567L128.666 8.79339L129.842 12.2523L126.764 10.1146L123.687 12.2523L124.863 8.79339L121.785 6.65567L125.589 6.65567L126.764 3.19678Z" fill="white"/>
</svg>
