<svg width="133" height="29" viewBox="0 0 133 29" fill="none" xmlns="http://www.w3.org/2000/svg">
<path d="M1.35233 26.3902C1.0071 26.4059 0.740339 26.3432 0.552034 26.2019C0.348037 26.0607 0.277423 25.7939 0.340191 25.4016C0.340191 25.3546 0.355883 25.2839 0.387267 25.1898C0.418651 25.0956 0.457882 25.0329 0.504958 25.0015C0.489266 25.3938 0.536342 25.6684 0.646187 25.8253C0.756031 25.9822 0.93649 26.0607 1.18756 26.0607C1.79956 26.0607 2.42724 25.8645 3.07061 25.4722C3.72968 25.0799 4.3809 24.5543 5.02428 23.8952C4.86736 23.8481 4.66336 23.754 4.41229 23.6127C4.17691 23.4872 3.99645 23.3852 3.87091 23.3067C3.24323 22.8517 2.92939 22.326 2.92939 21.7297C2.92939 21.2746 3.13338 20.7803 3.54138 20.2468C3.94937 19.7132 4.61629 19.1719 5.54212 18.6226C6.13842 18.2617 6.82887 17.94 7.61347 17.6576C8.39808 17.3751 9.12776 17.1476 9.80252 16.975C10.0379 16.5199 10.2654 16.0727 10.4851 15.6333C10.7048 15.1939 10.9167 14.7545 11.1207 14.3152C11.1991 14.1426 11.3403 13.813 11.5443 13.3266C11.7483 12.8401 11.9759 12.2674 12.2269 11.6083C12.478 10.9492 12.7134 10.2509 12.9331 9.51339C13.1685 8.76017 13.3646 8.03049 13.5215 7.32434C13.6785 6.6182 13.7569 5.99052 13.7569 5.44129C13.7569 4.90776 13.6628 4.49192 13.4745 4.19377C13.3019 3.89562 12.988 3.74655 12.5329 3.74655H12.5094C12.3839 3.74655 12.3211 3.70732 12.3211 3.62886C12.3211 3.5504 12.3996 3.49548 12.5565 3.46409C13.3097 3.38563 13.8354 3.56609 14.1335 4.00547C14.4317 4.44485 14.5808 5.02545 14.5808 5.74729C14.5808 5.87283 14.5729 6.00621 14.5572 6.14744C14.5572 6.28867 14.5494 6.43774 14.5337 6.59466C14.6278 6.67312 14.6906 6.80651 14.722 6.99481C14.8161 7.49696 14.9103 8.15603 15.0044 8.97201C15.1143 9.788 15.2398 10.6825 15.3811 11.6554C15.5223 12.6283 15.6871 13.6169 15.8754 14.6212C16.0794 15.6098 16.3147 16.5434 16.5815 17.4222C16.864 18.2853 17.1935 19.015 17.5701 19.6113C17.6486 19.7368 17.7584 19.9016 17.8996 20.1056C18.0409 20.2939 18.2135 20.4665 18.4175 20.6234C18.6215 20.7803 18.849 20.8588 19.1001 20.8588C19.3668 20.8588 19.6415 20.7489 19.9239 20.5292C20.175 20.3252 20.4104 20.0428 20.6301 19.6819C20.8498 19.3209 21.0537 18.9365 21.2421 18.5285C21.3362 18.3559 21.4225 18.2696 21.501 18.2696C21.5794 18.2696 21.6344 18.3167 21.6657 18.4108C21.7128 18.4893 21.7285 18.5677 21.7128 18.6462C21.65 18.8502 21.5167 19.0934 21.3127 19.3759C21.1244 19.6426 20.9282 19.8937 20.7242 20.1291C20.5202 20.3488 20.3554 20.5057 20.2299 20.5999C19.9475 20.8195 19.6728 20.9765 19.4061 21.0706C19.155 21.1805 18.9196 21.2354 18.6999 21.2354C18.1821 21.2354 17.727 21.0392 17.3347 20.6469C16.9581 20.2389 16.6286 19.8152 16.3461 19.3759C15.9538 18.7482 15.64 17.9557 15.4046 16.9985C15.1849 16.0413 15.0123 15.0056 14.8868 13.8915C14.7612 12.7773 14.6592 11.6789 14.5808 10.5961C14.518 9.51339 14.4474 8.52479 14.3689 7.63034C14.1806 8.5091 13.9217 9.41139 13.5922 10.3372C13.2626 11.2631 12.9252 12.1183 12.58 12.9029C12.2505 13.6718 11.9759 14.2681 11.7562 14.6918C11.411 15.3979 11.0343 16.1041 10.6264 16.8102C11.3482 16.6376 12.1014 16.4807 12.886 16.3394C13.6706 16.1982 14.3611 16.0648 14.9574 15.9393H15.028C15.0908 15.9393 15.1221 15.9628 15.1221 16.0099C15.1221 16.057 15.0829 16.1198 15.0044 16.1982C14.926 16.2767 14.824 16.3316 14.6985 16.363C14.0237 16.4885 13.294 16.6376 12.5094 16.8102C11.7248 16.9671 10.9873 17.1397 10.2968 17.3281C9.57498 18.5677 8.8453 19.7446 8.10777 20.8588C7.37025 21.9729 6.5621 22.9615 5.68335 23.8246C6.27965 24.0129 7.04071 24.107 7.96655 24.107H8.01362C8.13916 24.107 8.20193 24.1384 8.20193 24.2012C8.20193 24.2953 8.10777 24.3424 7.91947 24.3424C7.48009 24.3581 7.04856 24.3346 6.62487 24.2718C6.20119 24.2247 5.80888 24.1463 5.44797 24.0364C4.75751 24.7112 4.05922 25.2526 3.35307 25.6606C2.66262 26.0842 1.99571 26.3275 1.35233 26.3902ZM5.25966 23.6598C6.01288 22.8752 6.74256 21.9572 7.44871 20.9058C8.17054 19.8545 8.8453 18.756 9.47299 17.6105C9.26899 17.6733 9.05715 17.7439 8.83746 17.8224C8.61777 17.9008 8.40592 17.995 8.20193 18.1048C7.93516 18.2303 7.57424 18.4108 7.11917 18.6462C6.6641 18.8816 6.20903 19.1326 5.75396 19.3994C5.31458 19.6505 4.9772 19.878 4.74182 20.082C4.42798 20.3645 4.20044 20.6391 4.05922 20.9058C3.91799 21.1726 3.84737 21.4315 3.84737 21.6826C3.84737 21.9023 3.8866 22.1141 3.96506 22.3181C4.05922 22.5221 4.16906 22.7183 4.2946 22.9066C4.37306 23.0007 4.51429 23.1263 4.71828 23.2832C4.93797 23.4558 5.11843 23.5813 5.25966 23.6598ZM37.4341 25.4958C36.9947 25.4958 36.6259 25.3075 36.3278 24.9309C36.0296 24.57 35.8099 24.1227 35.6687 23.5892C35.5275 23.0557 35.4569 22.5457 35.4569 22.0592C35.4569 21.1177 35.5903 20.0742 35.857 18.9286C36.1238 17.7831 36.4533 16.6141 36.8456 15.4215C37.2536 14.2289 37.6695 13.0833 38.0931 11.9849C38.5325 10.8708 38.9248 9.86646 39.2701 8.97201C39.6153 8.07757 39.8585 7.36357 39.9997 6.83004C40.0311 6.68882 40.0547 6.56328 40.0704 6.45343C40.086 6.3279 40.0939 6.2259 40.0939 6.14744C40.0939 5.86498 40.0076 5.72375 39.835 5.72375C39.5839 5.72375 39.2073 5.98267 38.7051 6.50051C38.203 7.00266 37.6381 7.69311 37.0104 8.57187C36.3984 9.43493 35.7864 10.4157 35.1744 11.5141C34.5624 12.6126 34.0132 13.7503 33.5268 14.9272C33.056 16.0884 32.7265 17.2261 32.5381 18.3402C32.4754 18.7482 32.3655 19.0542 32.2086 19.2582C32.0674 19.4622 31.9262 19.5642 31.7849 19.5642C31.6594 19.5642 31.5495 19.4857 31.4554 19.3288C31.3612 19.1719 31.3142 18.9443 31.3142 18.6462C31.2985 17.3908 31.2592 16.1355 31.1965 14.8801C31.1337 13.609 30.9925 12.3929 30.7728 11.2317C30.4433 9.44278 30.0666 8.17172 29.643 7.4185C29.235 6.66528 28.8113 6.28867 28.3719 6.28867C27.9639 6.28867 27.5638 6.53974 27.1715 7.04189C26.7948 7.52834 26.4339 8.17956 26.0887 8.99555C25.7435 9.79585 25.4375 10.6746 25.1707 11.6318C24.9039 12.589 24.6921 13.5384 24.5352 14.4799C24.394 15.4215 24.3233 16.261 24.3233 16.9985C24.3233 17.1711 24.3233 17.3437 24.3233 17.5164C24.339 17.6733 24.3547 17.8224 24.3704 17.9636C24.3861 18.042 24.394 18.1283 24.394 18.2225C24.394 18.301 24.394 18.3794 24.394 18.4579C24.394 18.8188 24.3469 19.1405 24.2527 19.4229C24.1586 19.7054 24.0487 19.8466 23.9232 19.8466C23.7977 19.8466 23.68 19.7054 23.5701 19.4229C23.4446 19.1405 23.3426 18.7874 23.2641 18.3637C23.1857 17.9244 23.1229 17.5556 23.0758 17.2574C23.0444 17.0377 22.9738 16.7082 22.864 16.2688C22.7698 15.8295 22.6521 15.3508 22.5109 14.833C22.3697 14.2995 22.2049 13.7816 22.0166 13.2795C21.844 12.7617 21.6557 12.3223 21.4517 11.9614C21.2477 11.5847 21.0358 11.3415 20.8162 11.2317C20.7848 11.2003 20.7691 11.1689 20.7691 11.1375C20.7691 11.0591 20.8475 11.012 21.0045 10.9963C21.1771 10.9806 21.2948 10.9884 21.3575 11.0198C21.6871 11.114 21.9774 11.3494 22.2284 11.726C22.4952 12.0869 22.7227 12.5184 22.9111 13.0206C23.115 13.507 23.2877 13.9935 23.4289 14.4799C23.5701 14.9507 23.6878 15.343 23.782 15.6568C23.9546 14.5741 24.1586 13.507 24.394 12.4557C24.645 11.3886 24.9746 10.3451 25.3826 9.32509C25.9632 7.9128 26.5359 6.9085 27.1008 6.31221C27.6658 5.70021 28.1993 5.39422 28.7014 5.39422C29.235 5.39422 29.7136 5.66883 30.1373 6.21805C30.5766 6.75158 30.9454 7.46557 31.2436 8.36002C31.5574 9.23878 31.7692 10.196 31.8791 11.2317C31.9418 11.7652 31.9811 12.3458 31.9968 12.9735C32.0125 13.5855 32.0203 14.1896 32.0203 14.7859V16.6219C32.0203 16.8887 32.0203 17.1319 32.0203 17.3516C32.0203 17.5713 32.0282 17.7517 32.0438 17.893C32.1537 17.5164 32.3342 16.9907 32.5852 16.3159C32.8363 15.6255 33.1423 14.8565 33.5032 14.0092C33.8641 13.1461 34.2721 12.2595 34.7272 11.3494C35.1823 10.4392 35.6687 9.56831 36.1866 8.73663C36.7201 7.88926 37.2693 7.15173 37.8342 6.52405C38.4148 5.88067 38.9954 5.40991 39.5761 5.11176C39.9213 4.93915 40.243 4.85284 40.5411 4.85284C40.8863 4.85284 41.1766 4.95484 41.412 5.15884C41.6474 5.34714 41.7651 5.6296 41.7651 6.00621C41.7651 6.57112 41.6474 7.13604 41.412 7.70096C41.1766 8.25018 40.8942 8.79156 40.5647 9.32509C40.2351 9.85862 39.9291 10.3765 39.6467 10.8786C39.1445 11.7887 38.6424 12.8401 38.1402 14.0327C37.6381 15.2253 37.2144 16.4571 36.8692 17.7282C36.5396 18.9993 36.3749 20.2232 36.3749 21.4001C36.3749 21.7768 36.3906 22.1455 36.4219 22.5064C36.469 22.8674 36.5396 23.2126 36.6338 23.5421C36.775 24.0443 36.9476 24.3895 37.1516 24.5778C37.3713 24.7818 37.591 24.8838 37.8107 24.8838C38.0461 24.8838 38.2658 24.8132 38.4698 24.6719C38.6738 24.5464 38.8385 24.4052 38.9641 24.2483C39.0896 24.107 39.1445 24.0207 39.1288 23.9893C39.2701 23.9423 39.325 23.9815 39.2936 24.107C39.2622 24.2483 39.1994 24.3895 39.1053 24.5307C39.0111 24.6876 38.9484 24.7818 38.917 24.8132C38.3678 25.2682 37.8735 25.4958 37.4341 25.4958ZM38.0387 26.3902C37.6935 26.4059 37.4267 26.3432 37.2384 26.2019C37.0344 26.0607 36.9638 25.7939 37.0266 25.4016C37.0266 25.3546 37.0423 25.2839 37.0737 25.1898C37.105 25.0956 37.1443 25.0329 37.1913 25.0015C37.1757 25.3938 37.2227 25.6684 37.3326 25.8253C37.4424 25.9822 37.6229 26.0607 37.8739 26.0607C38.4859 26.0607 39.1136 25.8645 39.757 25.4722C40.4161 25.0799 41.0673 24.5543 41.7107 23.8952C41.5537 23.8481 41.3497 23.754 41.0987 23.6127C40.8633 23.4872 40.6828 23.3852 40.5573 23.3067C39.9296 22.8517 39.6158 22.326 39.6158 21.7297C39.6158 21.2746 39.8198 20.7803 40.2278 20.2468C40.6358 19.7132 41.3027 19.1719 42.2285 18.6226C42.8248 18.2617 43.5153 17.94 44.2999 17.6576C45.0845 17.3751 45.8141 17.1476 46.4889 16.975C46.7243 16.5199 46.9518 16.0727 47.1715 15.6333C47.3912 15.1939 47.603 14.7545 47.807 14.3152C47.8855 14.1426 48.0267 13.813 48.2307 13.3266C48.4347 12.8401 48.6623 12.2674 48.9133 11.6083C49.1644 10.9492 49.3998 10.2509 49.6195 9.51339C49.8549 8.76017 50.051 8.03049 50.2079 7.32434C50.3649 6.6182 50.4433 5.99052 50.4433 5.44129C50.4433 4.90776 50.3492 4.49192 50.1609 4.19377C49.9882 3.89562 49.6744 3.74655 49.2193 3.74655H49.1958C49.0703 3.74655 49.0075 3.70732 49.0075 3.62886C49.0075 3.5504 49.0859 3.49548 49.2429 3.46409C49.9961 3.38563 50.5218 3.56609 50.8199 4.00547C51.1181 4.44485 51.2671 5.02545 51.2671 5.74729C51.2671 5.87283 51.2593 6.00621 51.2436 6.14744C51.2436 6.28867 51.2358 6.43774 51.2201 6.59466C51.3142 6.67312 51.377 6.80651 51.4084 6.99481C51.5025 7.49696 51.5967 8.15603 51.6908 8.97201C51.8007 9.788 51.9262 10.6825 52.0674 11.6554C52.2087 12.6283 52.3734 13.6169 52.5617 14.6212C52.7657 15.6098 53.0011 16.5434 53.2679 17.4222C53.5503 18.2853 53.8799 19.015 54.2565 19.6113C54.335 19.7368 54.4448 19.9016 54.586 20.1056C54.7273 20.2939 54.8999 20.4665 55.1039 20.6234C55.3079 20.7803 55.5354 20.8588 55.7865 20.8588C56.0532 20.8588 56.3278 20.7489 56.6103 20.5292C56.8614 20.3252 57.0968 20.0428 57.3164 19.6819C57.5361 19.3209 57.7401 18.9365 57.9284 18.5285C58.0226 18.3559 58.1089 18.2696 58.1874 18.2696C58.2658 18.2696 58.3207 18.3167 58.3521 18.4108C58.3992 18.4893 58.4149 18.5677 58.3992 18.6462C58.3364 18.8502 58.2031 19.0934 57.9991 19.3759C57.8107 19.6426 57.6146 19.8937 57.4106 20.1291C57.2066 20.3488 57.0418 20.5057 56.9163 20.5999C56.6338 20.8195 56.3592 20.9765 56.0925 21.0706C55.8414 21.1805 55.606 21.2354 55.3863 21.2354C54.8685 21.2354 54.4134 21.0392 54.0211 20.6469C53.6445 20.2389 53.315 19.8152 53.0325 19.3759C52.6402 18.7482 52.3264 17.9557 52.091 16.9985C51.8713 16.0413 51.6987 15.0056 51.5731 13.8915C51.4476 12.7773 51.3456 11.6789 51.2671 10.5961C51.2044 9.51339 51.1338 8.52479 51.0553 7.63034C50.867 8.5091 50.6081 9.41139 50.2785 10.3372C49.949 11.2631 49.6116 12.1183 49.2664 12.9029C48.9369 13.6718 48.6623 14.2681 48.4426 14.6918C48.0973 15.3979 47.7207 16.1041 47.3127 16.8102C48.0346 16.6376 48.7878 16.4807 49.5724 16.3394C50.357 16.1982 51.0475 16.0648 51.6438 15.9393H51.7144C51.7771 15.9393 51.8085 15.9628 51.8085 16.0099C51.8085 16.057 51.7693 16.1198 51.6908 16.1982C51.6124 16.2767 51.5104 16.3316 51.3848 16.363C50.7101 16.4885 49.9804 16.6376 49.1958 16.8102C48.4112 16.9671 47.6737 17.1397 46.9832 17.3281C46.2614 18.5677 45.5317 19.7446 44.7942 20.8588C44.0566 21.9729 43.2485 22.9615 42.3697 23.8246C42.966 24.0129 43.7271 24.107 44.6529 24.107H44.7C44.8255 24.107 44.8883 24.1384 44.8883 24.2012C44.8883 24.2953 44.7942 24.3424 44.6059 24.3424C44.1665 24.3581 43.7349 24.3346 43.3113 24.2718C42.8876 24.2247 42.4953 24.1463 42.1344 24.0364C41.4439 24.7112 40.7456 25.2526 40.0395 25.6606C39.349 26.0842 38.6821 26.3275 38.0387 26.3902ZM41.946 23.6598C42.6993 22.8752 43.4289 21.9572 44.1351 20.9058C44.8569 19.8545 45.5317 18.756 46.1594 17.6105C45.9554 17.6733 45.7435 17.7439 45.5238 17.8224C45.3042 17.9008 45.0923 17.995 44.8883 18.1048C44.6215 18.2303 44.2606 18.4108 43.8056 18.6462C43.3505 18.8816 42.8954 19.1326 42.4403 19.3994C42.001 19.6505 41.6636 19.878 41.4282 20.082C41.1144 20.3645 40.8868 20.6391 40.7456 20.9058C40.6044 21.1726 40.5338 21.4315 40.5338 21.6826C40.5338 21.9023 40.573 22.1141 40.6514 22.3181C40.7456 22.5221 40.8554 22.7183 40.981 22.9066C41.0594 23.0007 41.2007 23.1263 41.4047 23.2832C41.6244 23.4558 41.8048 23.5813 41.946 23.6598ZM60.9391 26.7198C60.3271 26.7198 59.7387 26.4922 59.1738 26.0372C58.6088 25.5978 58.1224 24.8681 57.7144 23.8481C57.5732 23.4872 57.4712 23.1106 57.4084 22.7183C57.3456 22.326 57.3142 21.9337 57.3142 21.5414C57.3142 20.898 57.3849 20.2546 57.5261 19.6113C57.6673 18.9679 57.8478 18.3637 58.0675 17.7988C58.2401 17.3908 58.4833 16.9357 58.7971 16.4336C59.111 15.9158 59.4091 15.4921 59.6916 15.1625C59.7857 15.0684 59.9034 14.9664 60.0447 14.8565C60.1859 14.731 60.28 14.6682 60.3271 14.6682C60.3428 14.6682 60.3507 14.6761 60.3507 14.6918C60.3507 14.7389 60.2173 14.9272 59.9505 15.2567C59.3071 16.0413 58.8285 16.9357 58.5147 17.94C58.2165 18.9286 58.0675 19.9094 58.0675 20.8823C58.0675 21.4629 58.1145 22.02 58.2087 22.5535C58.3185 23.087 58.4598 23.5813 58.6324 24.0364C58.9619 24.8681 59.315 25.4644 59.6916 25.8253C60.0839 26.1862 60.4919 26.3667 60.9156 26.3667C61.4491 26.3667 61.9905 26.1392 62.5397 25.6841C63.0889 25.229 63.6225 24.6249 64.1403 23.8717C64.6738 23.1184 65.1681 22.3024 65.6232 21.4237C66.0783 20.5449 66.4706 19.674 66.8001 18.811C67.1453 17.9322 67.3964 17.1476 67.5533 16.4571L67.9064 14.9978C67.8279 14.9821 67.7887 14.9507 67.7887 14.9036C67.7887 14.8252 67.8515 14.7467 67.977 14.6682C68.1653 13.8209 68.3065 12.9892 68.4007 12.1732C68.5105 11.3572 68.5655 10.604 68.5655 9.91354C68.5655 9.16032 68.4949 8.50125 68.3536 7.93634C68.2281 7.35573 68.0162 6.91635 67.7181 6.6182C67.5926 6.49266 67.4513 6.4299 67.2944 6.4299C67.1846 6.4299 67.0669 6.46128 66.9413 6.52405C66.8315 6.58682 66.7216 6.66528 66.6118 6.75943C66.502 6.86927 66.4863 6.84574 66.5647 6.68881C66.6589 6.5162 66.808 6.3279 67.012 6.1239C67.2316 5.9199 67.467 5.8179 67.7181 5.8179C67.8593 5.8179 68.0006 5.86498 68.1418 5.95913C68.6439 6.30436 68.997 6.83004 69.201 7.53619C69.4207 8.24233 69.5305 9.05832 69.5305 9.98415C69.5305 10.5961 69.4913 11.2395 69.4128 11.9143C69.3344 12.589 69.2245 13.2795 69.0833 13.9856C69.1147 14.017 69.1382 14.0563 69.1539 14.1033C69.1853 14.1504 69.2167 14.1975 69.2481 14.2446C71.1468 13.6326 72.6689 12.9813 73.8145 12.2909C74.9757 11.6004 75.8152 10.9021 76.3331 10.196C76.8666 9.48985 77.1333 8.81509 77.1333 8.17172C77.1333 7.49696 76.8823 6.89281 76.3801 6.35928C75.878 5.82575 75.1875 5.40206 74.3088 5.08822C73.43 4.77438 72.4179 4.61746 71.2724 4.61746C70.2053 4.61746 69.099 4.76653 67.9535 5.06468C66.9178 5.34714 65.9292 5.76298 64.9877 6.31221C64.0618 6.84574 63.2302 7.44204 62.4926 8.1011C61.7708 8.76017 61.1823 9.41139 60.7273 10.0548C60.2879 10.6981 60.0368 11.2631 59.974 11.7495C59.9427 12.0947 59.8799 12.3458 59.7857 12.5027C59.7073 12.6597 59.6288 12.7381 59.5504 12.7381C59.315 12.7381 59.1973 12.4557 59.1973 11.8907C59.1973 11.8123 59.1973 11.7338 59.1973 11.6554C59.213 11.5769 59.2287 11.4984 59.2444 11.42C59.3385 10.7138 59.6524 10.0077 60.1859 9.30155C60.7351 8.5954 61.4256 7.93634 62.2572 7.32434C63.1046 6.69666 64.0305 6.13959 65.0347 5.65314C66.039 5.16668 67.0433 4.79007 68.0476 4.52331C68.691 4.35069 69.3187 4.22516 69.9307 4.1467C70.5584 4.06824 71.1625 4.02901 71.7431 4.02901C73.0142 4.02901 74.1362 4.20162 75.1091 4.54684C76.082 4.89207 76.843 5.36283 77.3923 5.95913C77.9415 6.53974 78.2161 7.20665 78.2161 7.95987C78.2161 8.58756 77.9807 9.25447 77.51 9.96062C77.0392 10.6668 76.286 11.3729 75.2503 12.079C74.2146 12.7852 72.8494 13.4678 71.1547 14.1269C70.8094 14.2524 70.4956 14.3622 70.2131 14.4564C69.9464 14.5506 69.7031 14.6369 69.4835 14.7153C69.7973 15.2802 70.2053 15.9393 70.7074 16.6925C71.2096 17.4457 71.7431 18.2068 72.308 18.9757C72.8886 19.7446 73.4614 20.4429 74.0263 21.0706C74.5912 21.6983 75.1012 22.1769 75.5563 22.5064C75.8388 22.7104 76.1683 22.9144 76.5449 23.1184C76.9372 23.3381 77.3138 23.448 77.6747 23.448C78.0356 23.448 78.3103 23.346 78.4986 23.142C78.6869 22.9537 78.8202 22.7104 78.8987 22.4123C78.9772 22.1141 79.0164 21.816 79.0164 21.5178C79.0164 20.4979 78.7182 19.5563 78.1219 18.6933C78.0749 18.6148 78.0513 18.5677 78.0513 18.552C78.0513 18.505 78.0749 18.4814 78.1219 18.4814C78.2161 18.4814 78.3103 18.5442 78.4044 18.6697C78.7182 19.0463 78.9693 19.4857 79.1576 19.9879C79.3459 20.49 79.4401 20.9922 79.4401 21.4943C79.4401 22.2632 79.2125 22.9066 78.7575 23.4244C78.3181 23.958 77.714 24.2247 76.945 24.2247C76.1447 24.2247 75.3994 24.005 74.7089 23.5657C74.0342 23.1263 73.4065 22.5457 72.8259 21.8238C72.2453 21.102 71.7196 20.3252 71.2488 19.4936C70.7781 18.6462 70.3622 17.8145 70.0013 16.9985C69.6404 16.1825 69.3265 15.4607 69.0598 14.833L68.895 14.8801C68.6439 15.9628 68.3536 17.0142 68.0241 18.0342C67.7102 19.0542 67.3807 19.98 67.0355 20.8117C66.6118 21.8474 66.0626 22.8124 65.3878 23.7069C64.7288 24.617 64.0069 25.3467 63.2223 25.8959C62.4534 26.4452 61.6923 26.7198 60.9391 26.7198Z" fill="#1B0D13"/>
<path d="M110.352 18.1673C116.295 18.1673 121.113 14.1975 121.113 9.30047C121.113 4.40344 116.295 0.433594 110.352 0.433594C104.409 0.433594 99.5913 4.40344 99.5913 9.30047C99.5913 14.1975 104.409 18.1673 110.352 18.1673Z" fill="#1B0D13"/>
<path d="M111.913 6.01758C112.857 6.52594 113.491 7.48317 113.491 8.58451V14.4729H107.213V8.58451C107.213 7.49684 107.831 6.54996 108.756 6.03679" fill="#FFE695"/>
<path d="M110.352 6.02148V14.4727H113.491V8.58435C113.491 7.48302 112.851 6.52985 111.907 6.02148H110.352Z" fill="#EDD58B"/>
<path d="M109.679 3.78125H111.024C111.645 3.78125 112.145 4.19319 112.145 4.70488V9.50773C112.145 10.0194 111.645 10.4314 111.024 10.4314H109.679C109.532 10.4316 109.386 10.4079 109.25 10.3616C109.114 10.3152 108.99 10.2472 108.886 10.1614C108.782 10.0756 108.699 9.97366 108.643 9.86149C108.587 9.74932 108.558 9.6291 108.558 9.50773V4.70488C108.558 4.19319 109.058 3.78125 109.679 3.78125Z" fill="#FF5855"/>
<path d="M109.227 4.68262H109.679V8.74661H109.227V4.68262Z" fill="#FF7A6C"/>
<path d="M110.802 5.07324L110.781 5.33741L111.034 5.50144L110.722 5.56683L110.611 5.81548L110.439 5.59123L110.118 5.58088L110.324 5.3773L110.237 5.12238L110.535 5.22029L110.802 5.07324ZM111.251 7.65941L111.23 7.92358L111.482 8.0876L111.171 8.15299L111.059 8.40163L110.888 8.17739L110.567 8.16702L110.772 7.96349L110.685 7.70854L110.984 7.80645L111.251 7.65941ZM111.332 6.13801L111.544 6.33715L111.863 6.30612L111.699 6.53369L111.833 6.7742L111.519 6.71584L111.284 6.89577L111.254 6.63196L110.974 6.50266L111.269 6.39774L111.332 6.13801Z" fill="#FFE695"/>
<path d="M109.679 3.78125C109.058 3.78125 108.558 4.15926 108.558 4.67154V4.68265H112.145V4.67154C112.145 4.15926 111.645 3.78125 111.024 3.78125H109.679Z" fill="#FF7A6C"/>
<path d="M110.198 8.39963C110.114 8.4048 110.03 8.42216 109.946 8.43436C109.412 8.51018 108.925 8.72953 108.558 9.05803V9.50798C108.558 10.0197 109.058 10.4316 109.679 10.4316H111.024C111.645 10.4316 112.145 10.0197 112.145 9.50798V9.01144C111.646 8.59914 110.94 8.35566 110.198 8.39963Z" fill="#D94C4A"/>
<path d="M109.679 8.49219C109.523 8.52987 109.371 8.57051 109.231 8.63073V10.3509C109.37 10.4015 109.518 10.4322 109.679 10.4322V8.49259V8.49219Z" fill="#FF5855"/>
<path d="M110.018 3.78223C109.429 3.78223 109.231 4.31042 109.228 4.63814V4.68141H109.679C109.679 4.66477 109.679 4.65072 109.68 4.63222C109.691 4.36591 109.721 3.78223 110.403 3.78223H110.018Z" fill="#FF968A"/>
<path d="M92.9806 3.22266L94.1652 6.75723H97.9985L94.8973 8.94172L96.0819 12.4763L92.9806 10.2918L89.8794 12.4763L91.0639 8.94172L87.9627 6.75723H91.796L92.9806 3.22266Z" fill="#1B0D13"/>
<path d="M98.8198 13.4521L100.004 16.9867H103.838L100.737 19.1712L101.921 22.7058L98.8198 20.5213L95.7186 22.7058L96.9032 19.1712L93.8019 16.9867H97.6353L98.8198 13.4521Z" fill="#1B0D13"/>
<path d="M110.373 18.0039L111.558 21.5385H115.391L112.29 23.723L113.474 27.2575L110.373 25.0731L107.272 27.2575L108.456 23.723L105.355 21.5385H109.189L110.373 18.0039Z" fill="#1B0D13"/>
<path d="M121.092 13.4521L122.277 16.9867H126.11L123.009 19.1712L124.194 22.7058L121.092 20.5213L117.991 22.7058L119.176 19.1712L116.074 16.9867H119.908L121.092 13.4521Z" fill="#1B0D13"/>
<path d="M127.724 3.22266L128.909 6.75723H132.742L129.641 8.94172L130.825 12.4763L127.724 10.2918L124.623 12.4763L125.807 8.94172L122.706 6.75723H126.539L127.724 3.22266Z" fill="#1B0D13"/>
</svg>
