<svg width="43" height="35" viewBox="0 0 43 35" fill="none" xmlns="http://www.w3.org/2000/svg">
<path d="M10.5407 20.6045H6C3.23858 20.6045 1 22.8431 1 25.6045V29.085C1 31.8464 3.23858 34.085 6.00001 34.085H36.9997C39.7611 34.085 41.9997 31.8464 41.9997 29.085V25.6045C41.9997 22.8431 39.7611 20.6045 36.9997 20.6045H31.9465C30.7057 20.6045 29.6998 21.6104 29.6998 22.8512C29.6998 24.0921 28.6939 25.098 27.453 25.098H15.0342C13.7933 25.098 12.7874 24.0921 12.7874 22.8512C12.7874 21.6104 11.7815 20.6045 10.5407 20.6045Z" fill="#1B0D13" stroke="#A5694B"/>
<path d="M9.2002 7.91699H33.8" stroke="#A5694B" stroke-width="2" stroke-miterlimit="10" stroke-linecap="round" stroke-linejoin="round"/>
<path d="M9.2002 14.2612H33.8" stroke="#A5694B" stroke-width="2" stroke-miterlimit="10" stroke-linecap="round" stroke-linejoin="round"/>
<path d="M1.00037 20.6045H13.3003V25.3623H29.7001V20.6045H42" stroke="#A5694B" stroke-width="2" stroke-miterlimit="10" stroke-linecap="round" stroke-linejoin="round"/>
<path d="M37.9 1.57324H5.10021C2.83586 1.57324 1.00024 2.99334 1.00024 4.74512V30.1202C1.00024 31.8719 2.83586 33.292 5.10021 33.292H37.9C40.1643 33.292 41.9999 31.8719 41.9999 30.1202V4.74512C41.9999 2.99334 40.1643 1.57324 37.9 1.57324Z" stroke="#A5694B" stroke-width="2" stroke-miterlimit="10" stroke-linecap="round" stroke-linejoin="round"/>
</svg>
