<svg width="54" height="37" viewBox="0 0 54 37" fill="none" xmlns="http://www.w3.org/2000/svg">
<path d="M35.8269 16.463C35.225 16.0181 34.4923 15.6771 33.6834 15.4652C32.8744 15.2533 32.0099 15.176 31.1541 15.2391C30.2982 15.3022 29.473 15.504 28.7396 15.8296C28.0063 16.1551 27.3836 16.5961 26.918 17.1197C26.4525 16.5959 25.8299 16.1549 25.0966 15.8292C24.3632 15.5036 23.5379 15.3017 22.682 15.2386C21.8261 15.1755 20.9615 15.2528 20.1525 15.4648C19.3435 15.6768 18.6109 16.018 18.0091 16.463C16.9233 17.2669 16.3153 18.3464 16.3153 19.4706C16.3153 20.5949 16.9233 21.6744 18.0091 22.4783L26.918 29.0315L35.8292 22.4791C36.9142 21.6747 37.5215 20.595 37.521 19.4707C37.5206 18.3465 36.9125 17.267 35.8269 16.463Z" fill="#E7DCC8" stroke="#A5694B" stroke-width="2" stroke-miterlimit="10" stroke-linecap="round" stroke-linejoin="round"/>
<path d="M48.1244 35.6827H5.71244C4.46262 35.6827 3.26399 35.3234 2.38024 34.6837C1.49649 34.044 1 33.1764 1 32.2718V1.57324H19.8498L25.7403 8.39514H52.8368V32.2718C52.8368 33.1764 52.3403 34.044 51.4566 34.6837C50.5728 35.3234 49.3742 35.6827 48.1244 35.6827Z" stroke="#A5694B" stroke-width="2" stroke-miterlimit="10" stroke-linecap="round" stroke-linejoin="round"/>
</svg>
