<svg width="22" height="23" viewBox="0 0 22 23" fill="none" xmlns="http://www.w3.org/2000/svg">
<path d="M12.3679 1.2688C11.633 0.53315 10.3394 0.523341 9.59461 1.2688L0.774824 10.0966C0.0104428 10.8617 0.0104428 12.0976 0.774824 12.8627L9.59461 21.6905C9.9768 22.0731 10.4766 22.2594 10.9764 22.2594C11.4762 22.2594 11.9759 22.0731 12.3581 21.6905L21.1681 12.8725C21.9325 12.127 21.9423 10.8813 21.1877 10.1064L12.3679 1.2688ZM10.9862 20.3075L2.16639 11.4797L10.9862 2.65183L19.806 11.4797L10.9862 20.3075ZM7.05647 10.5086V14.4321H9.01642V11.4895H12.9363V13.9416L16.3662 10.5086L12.9363 7.07555V9.52773H8.03644C7.49746 9.52773 7.05647 9.96912 7.05647 10.5086Z" fill="#E7DCC8"/>
</svg>
