<svg width="53" height="48" viewBox="0 0 53 48" fill="none" xmlns="http://www.w3.org/2000/svg">
<path d="M26.5 47.0947C41.105 47.0947 52.9448 36.6157 52.9448 23.6892C52.9448 10.7627 41.105 0.283691 26.5 0.283691C11.8949 0.283691 0.0551758 10.7627 0.0551758 23.6892C0.0551758 36.6157 11.8949 47.0947 26.5 47.0947Z" fill="#FCEED8"/>
<path d="M43.456 14.3785C42.2086 14.8684 40.8689 15.1996 39.4602 15.3484C40.8979 14.5865 41.9992 13.3791 42.5192 11.9421C41.1536 12.66 39.659 13.1654 38.1005 13.4363C36.8321 12.2397 35.0234 11.4927 33.0224 11.4927C29.1816 11.4927 26.0667 14.2485 26.0667 17.6499C26.0667 18.1318 26.128 18.602 26.2459 19.0534C20.4641 18.7962 15.3381 16.345 11.907 12.6203C11.3079 13.5299 10.965 14.5876 10.965 15.7161C10.965 17.852 12.1933 19.7365 14.0597 20.8404C12.9548 20.8101 11.8742 20.5462 10.9081 20.0706V20.1484C10.9081 23.1319 13.3058 25.6197 16.4885 26.1855C15.9038 26.3272 15.2902 26.4013 14.6555 26.4013C14.2067 26.4013 13.7713 26.3637 13.3459 26.2929C14.2312 28.7383 16.8004 30.5183 19.8438 30.5686C17.4628 32.2205 14.4628 33.2052 11.2044 33.2052C10.6431 33.2052 10.0885 33.1756 9.54395 33.1175C12.6231 34.865 16.2792 35.8851 20.208 35.8851C33.0035 35.8851 40.0014 26.5029 40.0014 18.3665C40.0014 18.0994 39.9948 17.8343 39.9802 17.5701C41.3437 16.6973 42.5206 15.6165 43.456 14.3785Z" fill="#1B0D13"/>
</svg>
